<?xml version="1.0" standalone="no"?>
<!DOCTYPE svg PUBLIC "-//W3C//DTD SVG 20010904//EN"
 "http://www.w3.org/TR/2001/REC-SVG-20010904/DTD/svg10.dtd">
<svg version="1.0" xmlns="http://www.w3.org/2000/svg"
 width="184.000000pt" height="184.000000pt" viewBox="0 0 184.000000 184.000000"
 preserveAspectRatio="xMidYMid meet">
<metadata>
Created by potrace 1.11, written by Peter Selinger 2001-2013
</metadata>
<g transform="translate(0.000000,184.000000) scale(0.100000,-0.100000)"
fill="#000000" stroke="none">
<path d="M1379 1836 c-2 -2 -27 -6 -56 -10 -198 -23 -351 -166 -411 -382 -22
-79 -16 -104 23 -104 20 0 26 7 35 43 67 264 214 378 487 375 130 -1 293 -37
293 -65 0 -9 -3 -14 -6 -11 -9 10 -91 -22 -109 -43 -20 -21 -19 -29 30 -274
26 -129 26 -153 1 -182 -21 -24 -25 -25 -57 -14 -27 9 -40 23 -64 68 -16 31
-42 66 -57 76 -31 23 -93 30 -123 14 -48 -25 -59 -49 -105 -221 -21 -78 -56
-203 -79 -280 -23 -76 -73 -251 -111 -389 -38 -138 -75 -256 -82 -263 -7 -7
-19 -10 -25 -6 -7 5 -38 90 -68 190 -57 190 -73 229 -100 252 -27 22 -81 17
-109 -10 -30 -27 -41 -56 -101 -260 -25 -85 -52 -161 -59 -168 -23 -23 -41 9
-75 135 -85 307 -151 534 -164 560 -35 67 -105 99 -175 78 -54 -17 -92 -50
-92 -82 0 -30 47 -44 65 -20 30 41 104 40 134 -2 10 -14 71 -206 136 -426 64
-220 122 -403 128 -407 11 -7 55 -3 64 5 2 2 38 119 79 258 42 140 80 262 85
272 11 20 42 22 58 3 6 -7 40 -112 76 -232 80 -270 85 -286 97 -301 11 -13 56
-10 68 4 12 14 328 1079 345 1163 17 83 63 104 109 49 14 -17 26 -35 26 -41 0
-21 43 -69 78 -87 64 -32 138 -7 174 59 23 43 20 87 -21 289 l-28 139 57 21
c73 27 89 59 66 129 -12 35 -63 55 -221 87 -37 7 -210 16 -216 11z"/>
<path d="M1480 1530 c-32 -32 -21 -78 23 -93 21 -8 57 25 57 51 0 45 -51 71
-80 42z"/>
</g>
</svg>
